<svg xmlns="http://www.w3.org/2000/svg" width="436" height="365"><title>Logo SOFTKESLA-ai</title><g><title>Layer 1</title><g id="Layer 1"><g id="&lt;Group&gt;"><g id="&lt;Group&gt;"><g id="&lt;Group&gt;"><path fill="#ffffff" d="m32.17,358.97l0,-2.47c3.82,0.43 7.59,0.75 11.62,0.75c8.92,0 11.34,-1.99 11.34,-6.88c0,-2.37 -0.75,-3.71 -2.36,-4.79c-1.62,-1.13 -4.14,-1.82 -7.96,-2.9c-3.87,-1.13 -6.99,-2.26 -9.03,-3.98c-2.1,-1.77 -3.23,-4.14 -3.23,-7.69c0,-8.98 7.37,-11.29 16.08,-11.29c3.01,0 7.36,0.32 11.07,1.02l0,2.48c-3.17,-0.43 -6.72,-0.7 -9.67,-0.7c-7.75,0 -10.11,1.56 -10.11,6.29c0,2.26 0.7,3.6 2.2,4.57c1.56,1.02 4.09,1.83 7.58,2.79c4.09,1.13 7.15,2.21 9.3,3.88c2.32,1.82 3.44,4.19 3.44,7.9c0,9.14 -8.49,12.1 -17.2,12.1c-4.14,0 -8.87,-0.38 -13.07,-1.08z" class="shp1" id="&lt;Compound Path&gt;"></path><path fill="#ffffff" d="m77.4,339.88c0,-12.85 6.61,-20.32 18.55,-20.32c11.99,0 18.6,7.47 18.6,20.32c0,12.85 -6.61,20.33 -18.6,20.33c-11.94,0 -18.55,-7.48 -18.55,-20.33zm28.82,-0.05c0,-13.23 -2.91,-17.58 -10.27,-17.58c-7.32,0 -10.27,4.46 -10.27,17.58c0,13.17 2.95,17.63 10.27,17.63c7.36,0 10.27,-4.46 10.27,-17.63z" class="shp1" fill-rule="evenodd" id="&lt;Compound Path&gt;"></path><path fill="#ffffff" d="m131.33,320.04l27.31,0l0,2.69l-19.35,0l0,15.81l17.36,0l0,2.69l-17.36,0l0,18.49l-7.96,0l0,-39.68z" class="shp1" id="&lt;Compound Path&gt;"></path><path fill="#ffffff" d="m170.8,320.04l32.96,0l0,2.69l-12.48,0l0,36.99l-7.95,0l0,-36.99l-12.53,0l0,-2.69z" class="shp1" id="&lt;Compound Path&gt;"></path><path fill="#ffffff" d="m231.07,340.64l-4.51,4.94l0,14.14l-7.8,0l0,-39.68l7.8,0l0,21.24l19.62,-21.24l3.98,0l-13.82,14.9l14.9,24.78l-8.71,0l-11.46,-19.08z" class="shp1" id="&lt;Compound Path&gt;"></path><path fill="#ffffff" d="m266.35,320.04l27.58,0l0,2.69l-19.62,0l0,15.27l17.63,0l0,2.69l-17.63,0l0,16.35l19.89,0l0,2.68l-27.85,0l0,-39.68z" class="shp1" id="&lt;Compound Path&gt;"></path><path fill="#ffffff" d="m308.83,358.97l0,-2.47c3.82,0.43 7.58,0.75 11.61,0.75c8.93,0 11.35,-1.99 11.35,-6.88c0,-2.37 -0.75,-3.71 -2.37,-4.79c-1.61,-1.13 -4.14,-1.82 -7.95,-2.9c-3.88,-1.13 -6.99,-2.26 -9.04,-3.98c-2.09,-1.77 -3.22,-4.14 -3.22,-7.69c0,-8.98 7.36,-11.29 16.07,-11.29c3.01,0 7.37,0.32 11.08,1.02l0,2.48c-3.17,-0.43 -6.72,-0.7 -9.68,-0.7c-7.74,0 -10.11,1.56 -10.11,6.29c0,2.26 0.7,3.6 2.21,4.57c1.56,1.02 4.08,1.83 7.58,2.79c4.08,1.13 7.15,2.21 9.3,3.88c2.31,1.82 3.44,4.19 3.44,7.9c0,9.14 -8.49,12.1 -17.2,12.1c-4.14,0 -8.88,-0.38 -13.07,-1.08z" class="shp1" id="&lt;Compound Path&gt;"></path><path fill="#ffffff" d="m355.4,320.04l7.95,0l0,37l17.64,0l0,2.68l-25.59,0l0,-39.68z" class="shp1" id="&lt;Compound Path&gt;"></path><path fill="#ffffff" d="m407.12,320.04l7.1,0l14.68,39.68l-8.33,0l-4.2,-11.56l-16.34,0l-4.14,11.56l-3.12,0l14.35,-39.68zm-6.18,25.49l14.46,0l-7.25,-20l-7.21,20z" class="shp1" fill-rule="evenodd" id="&lt;Compound Path&gt;"></path></g></g><g id="&lt;Group&gt;"><path fill="#ffffff" d="m258.42,31.4c-38.41,0 -69.66,31.25 -69.66,69.66c0,9.68 1.95,19.04 5.79,27.83l17.64,40.37l0,0l7.26,16.59l16.28,37.25c1.97,4.52 2.97,9.35 2.97,14.36c0,19.88 -16.17,36.05 -36.05,36.05c-19.87,0 -36.04,-16.17 -36.04,-36.05c0,-5.02 1,-9.85 2.97,-14.36l23.53,-53.84l-22.07,-50.49l-32.26,74.06c-3.84,8.79 -5.78,18.15 -5.78,27.83c0,38.41 31.24,69.66 69.65,69.66c38.42,0 69.66,-31.25 69.66,-69.66c0,-9.68 -1.94,-19.04 -5.78,-27.82l-9.14,-20.9l-0.2,-0.47l-8.31,-19.01l0,0l-7.08,-16.19l-16.46,-37.66c-1.97,-4.51 -2.97,-9.34 -2.97,-14.35c0,-19.88 16.17,-36.06 36.05,-36.06c19.88,0 36.05,16.18 36.05,36.06c0,5.01 -1,9.84 -2.98,14.36l-23.53,53.83l22.16,50.69l32.17,-74.26c3.84,-8.79 5.79,-18.14 5.79,-27.82c0,-38.41 -31.25,-69.66 -69.66,-69.66z" class="shp1" id="&lt;Path&gt;"></path></g></g></g></g></svg>